<?xml version="1.0" encoding="UTF-8" standalone="no"?>
<!DOCTYPE svg PUBLIC "-//W3C//DTD SVG 1.1//EN"
 "http://www.w3.org/Graphics/SVG/1.1/DTD/svg11.dtd">
<!-- Generated by graphviz version 2.40.1 (20161225.0304)
 -->
<!-- Title: dependencies Pages: 1 -->
<svg width="1393pt" height="284pt"
 viewBox="0.00 0.00 1393.00 284.00" xmlns="http://www.w3.org/2000/svg" xmlns:xlink="http://www.w3.org/1999/xlink">
<g id="graph0" class="graph" transform="scale(1 1) rotate(0) translate(4 280)">
<title>dependencies</title>
<polygon fill="#ffffff" stroke="transparent" points="-4,4 -4,-280 1389,-280 1389,4 -4,4"/>
<text text-anchor="start" x="671.5091" y="-42.4" font-family="sans-serif" font-weight="bold" font-size="14.00" fill="#000000">Legend</text>
<polygon fill="#ffffb3" stroke="transparent" points="458.5,-10 458.5,-30 478.5,-30 478.5,-10 458.5,-10"/>
<text text-anchor="start" x="482.129" y="-15.4" font-family="sans-serif" font-size="14.00" fill="#000000"> &#160;Declarations</text>
<polygon fill="#8dd3c7" stroke="transparent" points="571.5,-10 571.5,-30 591.5,-30 591.5,-10 571.5,-10"/>
<text text-anchor="start" x="595.2251" y="-15.4" font-family="sans-serif" font-size="14.00" fill="#000000"> &#160;Module</text>
<polygon fill="#80b1d3" stroke="transparent" points="657.5,-10 657.5,-30 677.5,-30 677.5,-10 657.5,-10"/>
<text text-anchor="start" x="681.2812" y="-15.4" font-family="sans-serif" font-size="14.00" fill="#000000"> &#160;Bootstrap</text>
<polygon fill="#fdb462" stroke="transparent" points="754.5,-10 754.5,-30 774.5,-30 774.5,-10 754.5,-10"/>
<text text-anchor="start" x="778.1732" y="-15.4" font-family="sans-serif" font-size="14.00" fill="#000000"> &#160;Providers</text>
<polygon fill="#fb8072" stroke="transparent" points="850.5,-10 850.5,-30 870.5,-30 870.5,-10 850.5,-10"/>
<text text-anchor="start" x="874.2258" y="-15.4" font-family="sans-serif" font-size="14.00" fill="#000000"> &#160;Exports</text>
<g id="clust1" class="cluster">
<title>cluster_AppModule</title>
<polygon fill="none" stroke="#000000" stroke-dasharray="1,5" points="8,-70 8,-268 1377,-268 1377,-70 8,-70"/>
</g>
<g id="clust2" class="cluster">
<title>cluster_AppModule_declarations</title>
<polygon fill="none" stroke="#000000" points="500,-78 500,-130 1369,-130 1369,-78 500,-78"/>
</g>
<g id="clust9" class="cluster">
<title>cluster_AppModule_imports</title>
<polygon fill="none" stroke="#000000" points="348,-78 348,-130 492,-130 492,-78 348,-78"/>
</g>
<g id="clust11" class="cluster">
<title>cluster_AppModule_bootstrap</title>
<polygon fill="none" stroke="#000000" points="627,-208 627,-260 751,-260 751,-208 627,-208"/>
</g>
<g id="clust12" class="cluster">
<title>cluster_AppModule_providers</title>
<polygon fill="none" stroke="#000000" points="16,-78 16,-130 340,-130 340,-78 16,-78"/>
</g>
<!-- AnswerComponent -->
<g id="node1" class="node">
<title>AnswerComponent</title>
<polygon fill="#ffffb3" stroke="#000000" points="1361.3655,-122 1236.6345,-122 1236.6345,-86 1361.3655,-86 1361.3655,-122"/>
<text text-anchor="middle" x="1299" y="-99.8" font-family="Times,serif" font-size="14.00" fill="#000000">AnswerComponent</text>
</g>
<!-- AppModule -->
<g id="node7" class="node">
<title>AppModule</title>
<polygon fill="#8dd3c7" stroke="#000000" points="730.6571,-187 727.6571,-191 706.6571,-191 703.6571,-187 647.3429,-187 647.3429,-151 730.6571,-151 730.6571,-187"/>
<text text-anchor="middle" x="689" y="-164.8" font-family="Times,serif" font-size="14.00" fill="#000000">AppModule</text>
</g>
<!-- AnswerComponent&#45;&gt;AppModule -->
<g id="edge1" class="edge">
<title>AnswerComponent&#45;&gt;AppModule</title>
<path fill="none" stroke="#000000" d="M1299,-122.0109C1299,-144.4852 1299,-180 1299,-180 1299,-180 740.9278,-180 740.9278,-180"/>
<polygon fill="#000000" stroke="#000000" points="740.9278,-176.5001 730.9278,-180 740.9277,-183.5001 740.9278,-176.5001"/>
</g>
<!-- AnswerCreateComponent -->
<g id="node2" class="node">
<title>AnswerCreateComponent</title>
<polygon fill="#ffffb3" stroke="#000000" points="1218.8975,-122 1057.1025,-122 1057.1025,-86 1218.8975,-86 1218.8975,-122"/>
<text text-anchor="middle" x="1138" y="-99.8" font-family="Times,serif" font-size="14.00" fill="#000000">AnswerCreateComponent</text>
</g>
<!-- AnswerCreateComponent&#45;&gt;AppModule -->
<g id="edge2" class="edge">
<title>AnswerCreateComponent&#45;&gt;AppModule</title>
<path fill="none" stroke="#000000" d="M1138,-122.1289C1138,-142.5724 1138,-173 1138,-173 1138,-173 740.8376,-173 740.8376,-173"/>
<polygon fill="#000000" stroke="#000000" points="740.8377,-169.5001 730.8376,-173 740.8376,-176.5001 740.8377,-169.5001"/>
</g>
<!-- AppComponent -->
<g id="node3" class="node">
<title>AppComponent</title>
<polygon fill="#ffffb3" stroke="#000000" points="1039.9399,-122 934.0601,-122 934.0601,-86 1039.9399,-86 1039.9399,-122"/>
<text text-anchor="middle" x="987" y="-99.8" font-family="Times,serif" font-size="14.00" fill="#000000">AppComponent</text>
</g>
<!-- AppComponent&#45;&gt;AppModule -->
<g id="edge3" class="edge">
<title>AppComponent&#45;&gt;AppModule</title>
<path fill="none" stroke="#000000" d="M987,-122.2667C987,-140.5552 987,-166 987,-166 987,-166 740.7494,-166 740.7494,-166"/>
<polygon fill="#000000" stroke="#000000" points="740.7494,-162.5001 730.7494,-166 740.7494,-169.5001 740.7494,-162.5001"/>
</g>
<!-- QuestionComponent -->
<g id="node4" class="node">
<title>QuestionComponent</title>
<polygon fill="#ffffb3" stroke="#000000" points="915.8795,-122 784.1205,-122 784.1205,-86 915.8795,-86 915.8795,-122"/>
<text text-anchor="middle" x="850" y="-99.8" font-family="Times,serif" font-size="14.00" fill="#000000">QuestionComponent</text>
</g>
<!-- QuestionComponent&#45;&gt;AppModule -->
<g id="edge4" class="edge">
<title>QuestionComponent&#45;&gt;AppModule</title>
<path fill="none" stroke="#000000" d="M850,-122.0091C850,-138.0494 850,-159 850,-159 850,-159 740.8806,-159 740.8806,-159"/>
<polygon fill="#000000" stroke="#000000" points="740.8806,-155.5001 730.8806,-159 740.8805,-162.5001 740.8806,-155.5001"/>
</g>
<!-- QuestionListComponent -->
<g id="node5" class="node">
<title>QuestionListComponent</title>
<polygon fill="#ffffb3" stroke="#000000" points="765.6582,-122 612.3418,-122 612.3418,-86 765.6582,-86 765.6582,-122"/>
<text text-anchor="middle" x="689" y="-99.8" font-family="Times,serif" font-size="14.00" fill="#000000">QuestionListComponent</text>
</g>
<!-- QuestionListComponent&#45;&gt;AppModule -->
<g id="edge5" class="edge">
<title>QuestionListComponent&#45;&gt;AppModule</title>
<path fill="none" stroke="#000000" d="M689,-122.1061C689,-122.1061 689,-140.991 689,-140.991"/>
<polygon fill="#000000" stroke="#000000" points="685.5001,-140.9909 689,-150.991 692.5001,-140.991 685.5001,-140.9909"/>
</g>
<!-- ReversePipe -->
<g id="node6" class="node">
<title>ReversePipe</title>
<polygon fill="#ffffb3" stroke="#000000" points="593.9734,-122 508.0266,-122 508.0266,-86 593.9734,-86 593.9734,-122"/>
<text text-anchor="middle" x="551" y="-99.8" font-family="Times,serif" font-size="14.00" fill="#000000">ReversePipe</text>
</g>
<!-- ReversePipe&#45;&gt;AppModule -->
<g id="edge6" class="edge">
<title>ReversePipe&#45;&gt;AppModule</title>
<path fill="none" stroke="#000000" d="M551,-122.0091C551,-138.0494 551,-159 551,-159 551,-159 637.221,-159 637.221,-159"/>
<polygon fill="#000000" stroke="#000000" points="637.221,-162.5001 647.221,-159 637.2209,-155.5001 637.221,-162.5001"/>
</g>
<!-- AppComponent  -->
<g id="node9" class="node">
<title>AppComponent </title>
<polygon fill="#80b1d3" stroke="#000000" points="743.439,-252 634.561,-252 634.561,-216 743.439,-216 743.439,-252"/>
<text text-anchor="middle" x="689" y="-229.8" font-family="Times,serif" font-size="14.00" fill="#000000">AppComponent </text>
</g>
<!-- AppModule&#45;&gt;AppComponent  -->
<g id="edge8" class="edge">
<title>AppModule&#45;&gt;AppComponent </title>
<path fill="none" stroke="#000000" stroke-dasharray="1,5" d="M689,-187.1061C689,-187.1061 689,-205.991 689,-205.991"/>
<polygon fill="#000000" stroke="#000000" points="685.5001,-205.9909 689,-215.991 692.5001,-205.991 685.5001,-205.9909"/>
</g>
<!-- AppRoutingModule -->
<g id="node8" class="node">
<title>AppRoutingModule</title>
<polygon fill="#8dd3c7" stroke="#000000" points="484.2744,-122 481.2744,-126 460.2744,-126 457.2744,-122 355.7256,-122 355.7256,-86 484.2744,-86 484.2744,-122"/>
<text text-anchor="middle" x="420" y="-99.8" font-family="Times,serif" font-size="14.00" fill="#000000">AppRoutingModule</text>
</g>
<!-- AppRoutingModule&#45;&gt;AppModule -->
<g id="edge7" class="edge">
<title>AppRoutingModule&#45;&gt;AppModule</title>
<path fill="none" stroke="#000000" d="M420,-122.2667C420,-140.5552 420,-166 420,-166 420,-166 637.2639,-166 637.2639,-166"/>
<polygon fill="#000000" stroke="#000000" points="637.2639,-169.5001 647.2639,-166 637.2639,-162.5001 637.2639,-169.5001"/>
</g>
<!-- AnswerService -->
<g id="node10" class="node">
<title>AnswerService</title>
<ellipse fill="#fdb462" stroke="#000000" cx="262" cy="-104" rx="70.0403" ry="18"/>
<text text-anchor="middle" x="262" y="-99.8" font-family="Times,serif" font-size="14.00" fill="#000000">AnswerService</text>
</g>
<!-- AnswerService&#45;&gt;AppModule -->
<g id="edge9" class="edge">
<title>AnswerService&#45;&gt;AppModule</title>
<path fill="none" stroke="#000000" d="M262,-122.1289C262,-142.5724 262,-173 262,-173 262,-173 637.28,-173 637.28,-173"/>
<polygon fill="#000000" stroke="#000000" points="637.28,-176.5001 647.28,-173 637.2799,-169.5001 637.28,-176.5001"/>
</g>
<!-- QuestionService -->
<g id="node11" class="node">
<title>QuestionService</title>
<ellipse fill="#fdb462" stroke="#000000" cx="99" cy="-104" rx="74.7168" ry="18"/>
<text text-anchor="middle" x="99" y="-99.8" font-family="Times,serif" font-size="14.00" fill="#000000">QuestionService</text>
</g>
<!-- QuestionService&#45;&gt;AppModule -->
<g id="edge10" class="edge">
<title>QuestionService&#45;&gt;AppModule</title>
<path fill="none" stroke="#000000" d="M99,-122.0109C99,-144.4852 99,-180 99,-180 99,-180 637.0416,-180 637.0416,-180"/>
<polygon fill="#000000" stroke="#000000" points="637.0417,-183.5001 647.0416,-180 637.0416,-176.5001 637.0417,-183.5001"/>
</g>
</g>
</svg>
